<?xml version="1.0" encoding="UTF-8" standalone="no"?>
<svg
   xmlns:dc="http://purl.org/dc/elements/1.1/"
   xmlns:cc="http://creativecommons.org/ns#"
   xmlns:rdf="http://www.w3.org/1999/02/22-rdf-syntax-ns#"
   xmlns:svg="http://www.w3.org/2000/svg"
   xmlns="http://www.w3.org/2000/svg"
   xmlns:xlink="http://www.w3.org/1999/xlink"
   style="fill:none;stroke:none;stroke-linecap:square;stroke-miterlimit:10"
   width="100%"
   id="svg2"
   stroke-miterlimit="10"
   viewBox="0 0 954.92487 825.51178"
   version="1.1">
  <metadata
     id="metadata123">
    <rdf:RDF>
      <cc:Work
         rdf:about="">
        <dc:format>image/svg+xml</dc:format>
        <dc:type
           rdf:resource="http://purl.org/dc/dcmitype/StillImage" />
        <dc:title></dc:title>
      </cc:Work>
    </rdf:RDF>
  </metadata>
  <defs
     id="defs121" />
  <clipPath
     id="g1da20edf8b_0_12.0">
    <path
       style="clip-rule:nonzero"
       id="path5"
       d="M 0,0 960,0 960,960 0,960 0,0 Z" />
  </clipPath>
  <g
     transform="translate(-5.01189,-134.48819)"
     style="display:inline"
     id="layer3">
    <g
       id="g7"
       clip-path="url(#g1da20edf8b_0_12.0)">
      <path
         style="fill:#fff2cc;fill-opacity:0.37310001;fill-rule:evenodd"
         id="path11"
         d="m 371.84717,694.8796 0,0 c 0,-139.9585 113.4588,-253.41733 253.4173,-253.41733 l 0,0 c 67.21051,0 131.66815,26.69925 179.19312,74.22421 47.52496,47.52496 74.22424,111.98267 74.22424,179.19312 l 0,0 c 0,139.95856 -113.4588,253.41736 -253.41736,253.41736 l 0,0 c -139.9585,0 -253.4173,-113.4588 -253.4173,-253.41736 z" />
      <path
         style="color:#000000;clip-rule:nonzero;display:inline;overflow:visible;visibility:visible;opacity:1;isolation:auto;mix-blend-mode:normal;color-interpolation:sRGB;color-interpolation-filters:linearRGB;solid-color:#000000;solid-opacity:1;fill:none;fill-opacity:1;fill-rule:evenodd;stroke:#595959;stroke-width:1;stroke-linecap:butt;stroke-linejoin:round;stroke-miterlimit:10;stroke-dasharray:none;stroke-dashoffset:0;stroke-opacity:1;color-rendering:auto;image-rendering:auto;shape-rendering:auto;text-rendering:auto;enable-background:accumulate"
         id="path13"
         d="m 371.84717,694.8796 0,0 c 0,-139.9585 113.4588,-253.41733 253.4173,-253.41733 l 0,0 c 67.21051,0 131.66815,26.69925 179.19312,74.22421 47.52496,47.52496 74.22424,111.98267 74.22424,179.19312 l 0,0 c 0,139.95856 -113.4588,253.41736 -253.41736,253.41736 l 0,0 c -139.9585,0 -253.4173,-113.4588 -253.4173,-253.41736 z" />
      <path
         style="fill:#f4cccc;fill-opacity:0.29620002;fill-rule:evenodd"
         id="path15"
         d="m 226.58641,441.12897 0,0 c 0,-139.95853 113.45882,-253.41731 253.41734,-253.41731 l 0,0 c 67.21042,0 131.66812,26.69925 179.19308,74.22423 47.52496,47.52496 74.22424,111.98263 74.22424,179.19308 l 0,0 c 0,139.95856 -113.4588,253.41736 -253.41733,253.41736 l 0,0 c -139.95853,0 -253.41734,-113.4588 -253.41734,-253.41736 z" />
      <path
         style="fill-rule:evenodd;stroke:#595959;stroke-width:1;stroke-linecap:butt;stroke-linejoin:round"
         id="path17"
         d="m 226.58641,441.12897 0,0 c 0,-139.95853 113.45882,-253.41731 253.41734,-253.41731 l 0,0 c 67.21042,0 131.66812,26.69925 179.19308,74.22423 47.52496,47.52496 74.22424,111.98263 74.22424,179.19308 l 0,0 c 0,139.95856 -113.4588,253.41736 -253.41733,253.41736 l 0,0 c -139.95853,0 -253.41734,-113.4588 -253.41734,-253.41736 z" />
      <path
         style="fill:#7cd4f3;fill-opacity:0.37310001;fill-rule:evenodd"
         id="path19"
         d="m 81.32974,695.13384 0,0 c 0,-139.9585 113.4588,-253.41733 253.41733,-253.41733 l 0,0 c 67.21045,0 131.66812,26.69925 179.19312,74.22421 47.52496,47.52496 74.22418,111.98266 74.22418,179.19312 l 0,0 c 0,139.95856 -113.45877,253.41736 -253.4173,253.41736 l 0,0 c -139.95853,0 -253.41733,-113.4588 -253.41733,-253.41736 z" />
      <path
         style="fill-rule:evenodd;stroke:#595959;stroke-width:1;stroke-linecap:butt;stroke-linejoin:round"
         id="path21"
         d="m 81.32974,694.8796 0,0 c 0,-139.9585 113.4588,-253.41733 253.41733,-253.41733 l 0,0 c 67.21045,0 131.66812,26.69925 179.19312,74.22421 47.52496,47.52496 74.22418,111.98267 74.22418,179.19312 l 0,0 c 0,139.95856 -113.45877,253.41736 -253.4173,253.41736 l 0,0 c -139.95853,0 -253.41733,-113.4588 -253.41733,-253.41736 z" />
      <path
         style="fill:#000000;fill-opacity:0;fill-rule:evenodd"
         id="path23"
         d="m 368.74802,134.48819 234.07877,0 0,64.85039 -234.07877,0 z" />
      <path
         style="fill:#000000;fill-rule:nonzero"
         id="path25"
         d="m 416.6702,161.50507 1.5625,0 q 2.29688,0 3.39063,-0.76563 1.09375,-0.76562 1.09375,-2.40625 0,-1.625 -1.125,-2.3125 -1.10938,-0.6875 -3.45313,-0.6875 l -1.46875,0 0,6.17188 z m 0,3.9375 0,8.76562 -4.84375,0 0,-22.84375 6.65625,0 q 4.65625,0 6.89063,1.70313 2.23437,1.6875 2.23437,5.14062 0,2.01563 -1.10937,3.59375 -1.10938,1.5625 -3.14063,2.45313 5.15625,7.70312 6.71875,9.95312 l -5.375,0 -5.45312,-8.76562 -2.57813,0 z m 23.14063,-5.64063 q -1.51563,0 -2.375,0.96875 -0.85938,0.95313 -0.98438,2.71875 l 6.6875,0 q -0.0312,-1.76562 -0.92187,-2.71875 -0.89063,-0.96875 -2.40625,-0.96875 z m 0.67187,14.71875 q -4.21875,0 -6.59375,-2.32812 -2.375,-2.32813 -2.375,-6.59375 0,-4.39063 2.1875,-6.78125 2.20313,-2.40625 6.07813,-2.40625 3.70312,0 5.76562,2.10937 2.0625,2.10938 2.0625,5.82813 l 0,2.3125 -11.26562,0 q 0.0781,2.03125 1.20312,3.17187 1.125,1.14063 3.15625,1.14063 1.57813,0 2.98438,-0.32813 1.40625,-0.32812 2.9375,-1.04687 l 0,3.6875 q -1.25,0.625 -2.67188,0.92187 -1.42187,0.3125 -3.46875,0.3125 z m 22.09375,-0.3125 -0.92187,-2.375 -0.125,0 q -1.20313,1.51563 -2.48438,2.10938 -1.26562,0.57812 -3.3125,0.57812 -2.51562,0 -3.96875,-1.4375 -1.4375,-1.4375 -1.4375,-4.09375 0,-2.78125 1.9375,-4.09375 1.95313,-1.32812 5.875,-1.46875 l 3.03125,-0.0937 0,-0.76562 q 0,-2.65625 -2.71875,-2.65625 -2.09375,0 -4.92187,1.26562 l -1.57813,-3.21875 q 3.01563,-1.57812 6.6875,-1.57812 3.51563,0 5.39063,1.53125 1.875,1.53125 1.875,4.65625 l 0,11.64062 -3.32813,0 z m -1.40625,-8.09375 -1.84375,0.0625 q -2.07812,0.0625 -3.09375,0.75 -1.01562,0.6875 -1.01562,2.09375 0,2.01563 2.3125,2.01563 1.65625,0 2.64062,-0.95313 1,-0.95312 1,-2.53125 l 0,-1.4375 z m 14.40625,8.09375 -4.76562,0 0,-24.3125 4.76562,0 0,24.3125 z m 32.64063,-11.64062 q 0,5.64062 -3.21875,8.64062 -3.20313,3 -9.26563,3 l -6.46875,0 0,-22.84375 7.17188,0 q 5.59375,0 8.6875,2.95313 3.09375,2.95312 3.09375,8.25 z m -5.03125,0.125 q 0,-7.35938 -6.5,-7.35938 l -2.57813,0 0,14.875 2.07813,0 q 7,0 7,-7.51562 z m 20.4844,11.51562 -0.92187,-2.375 -0.125,0 q -1.20313,1.51563 -2.48438,2.10938 -1.26562,0.57812 -3.3125,0.57812 -2.51562,0 -3.96875,-1.4375 -1.43753,-1.4375 -1.43753,-4.09375 0,-2.78125 1.93753,-4.09375 1.95313,-1.32812 5.875,-1.46875 l 3.03125,-0.0937 0,-0.76562 q 0,-2.65625 -2.71875,-2.65625 -2.09375,0 -4.92187,1.26562 l -1.57813,-3.21875 q 3.01563,-1.57812 6.6875,-1.57812 3.51563,0 5.39063,1.53125 1.875,1.53125 1.875,4.65625 l 0,11.64062 -3.32813,0 z m -1.40625,-8.09375 -1.84375,0.0625 q -2.07812,0.0625 -3.09375,0.75 -1.01562,0.6875 -1.01562,2.09375 0,2.01563 2.3125,2.01563 1.65625,0 2.64062,-0.95313 1,-0.95312 1,-2.53125 l 0,-1.4375 z m 17,4.60938 q 1.25,0 3,-0.54688 l 0,3.54688 q -1.78125,0.79687 -4.375,0.79687 -2.85937,0 -4.17187,-1.4375 -1.29688,-1.45312 -1.29688,-4.34375 l 0,-8.42187 -2.28125,0 0,-2.01563 2.625,-1.59375 1.375,-3.6875 3.04688,0 0,3.71875 4.89062,0 0,3.57813 -4.89062,0 0,8.42187 q 0,1.01563 0.5625,1.5 0.57812,0.48438 1.51562,0.48438 z m 17.625,3.48437 -0.92187,-2.375 -0.125,0 q -1.20313,1.51563 -2.48438,2.10938 -1.26562,0.57812 -3.3125,0.57812 -2.51562,0 -3.96875,-1.4375 -1.4375,-1.4375 -1.4375,-4.09375 0,-2.78125 1.9375,-4.09375 1.95313,-1.32812 5.875,-1.46875 l 3.03125,-0.0937 0,-0.76562 q 0,-2.65625 -2.71875,-2.65625 -2.09375,0 -4.92187,1.26562 l -1.57813,-3.21875 q 3.01563,-1.57812 6.6875,-1.57812 3.51563,0 5.39063,1.53125 1.875,1.53125 1.875,4.65625 l 0,11.64062 -3.32813,0 z m -1.40625,-8.09375 -1.84375,0.0625 q -2.07812,0.0625 -3.09375,0.75 -1.01562,0.6875 -1.01562,2.09375 0,2.01563 2.3125,2.01563 1.65625,0 2.64062,-0.95313 1,-0.95312 1,-2.53125 l 0,-1.4375 z" />
      <path
         style="fill:#000000;fill-opacity:0;fill-rule:evenodd"
         id="path27"
         d="M 748.5982,920.2598 914.07849,754.71653 959.93677,800.57474 794.45648,966.11807 Z" />
      <path
         style="fill:#000000;fill-rule:nonzero"
         id="path29"
         d="m 799.19775,907.85596 1.10461,-1.1051 q 1.62384,-1.62439 1.85572,-2.93933 0.23187,-1.31494 -0.92823,-2.47504 -1.14904,-1.14905 -2.43054,-0.83954 -1.27044,0.29846 -2.92737,1.95606 l -1.03839,1.03875 4.3642,4.3642 z m 2.78424,2.78424 6.19818,6.19824 -3.42438,3.42566 -16.15295,-16.15295 4.70575,-4.70758 q 3.29187,-3.29309 6.07581,-3.66907 2.77288,-0.38696 5.2146,2.05475 1.42529,1.42529 1.75689,3.32574 0.32056,1.88947 -0.48572,3.95581 9.09223,1.80024 11.78785,2.28614 l -3.79993,3.80145 -10.05347,-2.34155 -1.82263,1.82336 z m 12.37122,-20.35455 q -1.07148,1.0719 -0.99402,2.36468 0.0664,1.2818 1.2265,2.61866 l 4.7279,-4.72968 q -1.27062,-1.22638 -2.57421,-1.27045 -1.31464,-0.0551 -2.38617,1.01679 z m 10.88275,9.93255 q -2.98255,2.98365 -6.30786,3.01715 -3.32526,0.0335 -6.34156,-2.98278 -3.10461,-3.10468 -3.24853,-6.34217 -0.14392,-3.25964 2.59558,-6.00018 2.61798,-2.61902 5.56769,-2.58612 2.9497,0.0328 5.57922,2.66241 l 1.63519,1.6352 -7.96447,7.96747 q 1.49151,1.3811 3.09344,1.39196 1.60187,0.0109 3.0379,-1.42566 1.11573,-1.11615 1.87787,-2.34271 0.76215,-1.22656 1.33649,-2.81775 l 2.60742,2.60742 q -0.44177,1.32599 -1.23706,2.54157 -0.78424,1.22656 -2.23132,2.67419 z m 12.79175,-12.79663 q -5.76624,5.76844 -12.09705,-0.56238 -3.1488,-3.14886 -3.23749,-6.3753 -0.0998,-3.23755 2.82752,-6.16595 2.143,-2.14386 4.6839,-3.00593 l 1.61328,3.60199 q -1.11579,0.47522 -1.99952,0.96149 -0.89483,0.47522 -1.57971,1.1604 -2.62903,2.63001 1.10535,6.36444 3.62396,3.6239 6.25299,0.99384 0.97211,-0.97241 1.54645,-2.05536 0.56335,-1.09393 0.83935,-2.47516 l 2.88373,2.88367 q -0.29815,1.33703 -0.93884,2.37573 -0.62958,1.02765 -1.89996,2.29852 z m 15.14465,-15.59247 -2.03284,-1.12683 -0.17676,0.17682 q 0.3205,1.40326 -0.1986,2.87293 -0.53009,1.45855 -1.80048,2.72937 -2.17615,2.177 -4.44086,2.12195 -2.27582,-0.066 -4.46344,-2.25367 l -8.05438,-8.05438 3.3692,-3.37048 7.21466,7.21472 q 1.33692,1.33685 2.48584,1.53564 1.13794,0.18775 2.17627,-0.85101 1.41394,-1.41449 1.10449,-2.98352 -0.32055,-1.58002 -2.50817,-3.76764 l -5.81153,-5.81152 3.3692,-3.37049 12.35224,12.3523 -2.58484,2.58582 z m 0.4284,-25.60192 q 0.68488,-0.68512 1.23725,-1.03876 l 2.90582,3.414 q -0.51923,0.2984 -1.10467,0.88409 -1.6128,1.61341 -1.68995,3.34821 -0.0662,1.72375 1.42542,3.21527 l 6.28662,6.28662 -3.3692,3.37049 -12.35224,-12.3523 2.5517,-2.55267 2.57422,1.57983 0.16571,-0.16577 q -0.46417,-1.61322 -0.12183,-3.21539 0.34235,-1.62433 1.49115,-2.77362 z m 10.2732,-10.2771 q 0.68487,-0.68512 1.23718,-1.03876 l 2.90582,3.41406 q -0.51916,0.29834 -1.10461,0.88403 -1.61279,1.61341 -1.69,3.34821 -0.0661,1.72375 1.42547,3.21527 l 6.28662,6.28662 -3.3692,3.37049 -12.35223,-12.3523 2.55169,-2.55267 2.57422,1.57983 0.16571,-0.16577 q -0.46417,-1.61322 -0.12182,-3.21539 0.34228,-1.62433 1.49115,-2.77362 z m 10.89221,-6.10041 q -1.07147,1.0719 -0.99402,2.36469 0.0664,1.2818 1.2265,2.61865 l 4.72791,-4.72968 q -1.27057,-1.22637 -2.57422,-1.27044 -1.31464,-0.0551 -2.38617,1.01678 z m 10.88275,9.93256 q -2.98254,2.98364 -6.3078,3.01715 -3.32532,0.0334 -6.34155,-2.98279 -3.10468,-3.10467 -3.2486,-6.34216 -0.14392,-3.25965 2.59558,-6.00018 2.61804,-2.61902 5.56769,-2.58613 2.94971,0.0328 5.57928,2.66242 l 1.63514,1.63519 -7.96448,7.96747 q 1.49158,1.3811 3.09344,1.39197 1.60187,0.0109 3.03791,-1.42566 1.11572,-1.11615 1.87787,-2.34271 0.76214,-1.22657 1.33648,-2.81775 l 2.60749,2.60742 q -0.44178,1.32599 -1.23713,2.54156 -0.78424,1.22657 -2.23132,2.6742 z m 18.95563,-19.40491 -3.36914,3.37049 -7.21472,-7.21473 q -1.33686,-1.33685 -2.47474,-1.52459 -1.14898,-0.1988 -2.18737,0.83996 -1.41394,1.41449 -1.09339,2.99457 0.30945,1.56897 2.49707,3.75659 l 5.81153,5.81153 -3.36914,3.37048 -12.3523,-12.3523 2.57385,-2.57476 2.03284,1.12683 0.1878,-0.18787 q -0.3316,-1.4585 0.19855,-2.89502 0.53015,-1.45856 1.78943,-2.71838 2.15405,-2.15485 4.44092,-2.0998 2.27576,0.0439 4.47443,2.24262 l 8.05438,8.05438 z m 6.20764,-11.13855 q 0.88373,-0.88409 1.73425,-2.50842 l 2.508,2.50799 q -0.6958,1.82325 -2.52954,3.65766 -2.02149,2.02228 -3.96588,1.93408 -1.94434,-0.11035 -3.98835,-2.1543 l -5.95514,-5.9552 -1.61279,1.61341 -1.42523,-1.42524 0.72882,-2.98345 -1.63538,-3.57996 2.15406,-2.15485 2.62957,2.62952 3.45752,-3.4588 2.53016,2.53009 -3.45759,3.45886 5.9552,5.95514 q 0.71814,0.7182 1.45832,0.66284 0.75122,-0.0663 1.414,-0.72937 z" />
      <path
         style="fill:#000000;fill-opacity:0;fill-rule:evenodd"
         id="path31"
         d="M 50.87015,769.7878 216.41345,935.26815 170.55519,981.12636 5.01189,815.64607 Z" />
      <path
         style="fill:#000000;fill-rule:nonzero"
         id="path33"
         d="m 87.59822,862.66376 -3.900879,-3.89941 6.297256,-10.67249 q 0.331429,-0.57446 1.447274,-2.28693 1.137947,-1.71246 1.57988,-2.24279 -0.662926,0.53033 -2.253968,1.59106 -1.579986,1.04962 -2.287124,1.46954 l -10.64016,6.28699 -3.889824,-3.8883 12.031075,-20.27332 3.370445,3.36914 -6.750267,10.88245 q -1.900246,2.98303 -3.446991,5.01587 0.696068,-0.56348 2.242912,-1.64624 1.56894,-1.08283 2.508103,-1.60218 l 11.402542,-6.69586 3.237838,3.23664 -6.694969,11.40161 q -0.452957,0.76233 -1.469383,2.24279 -1.016418,1.48047 -1.789795,2.49689 0.972298,-0.75128 2.49704,-1.78992 1.535797,-1.04962 2.530197,-1.6463 l 10.872158,-6.76208 3.37045,3.36914 -20.263811,12.0437 z m 14.76248,2.36273 q -1.83406,1.83411 -2.17645,3.36969 -0.331338,1.54669 1.02789,2.9054 1.34818,1.34771 2.86194,1.00506 1.53587,-0.34259 3.38097,-2.18774 1.83406,-1.83405 2.15436,-3.3476 0.32028,-1.51348 -1.03895,-2.87219 -1.34817,-1.34772 -2.86193,-1.02716 -1.50272,0.30945 -3.34783,2.15454 z m 8.54215,8.53894 q -3.01625,3.01624 -6.30902,3.12702 -3.29277,0.11078 -6.132787,-2.72815 -1.779151,-1.77845 -2.364982,-3.91059 -0.574784,-2.14312 0.154281,-4.33062 0.729065,-2.18744 2.673607,-4.13202 3.027301,-3.02729 6.286931,-3.12702 3.25962,-0.0997 6.12173,2.76129 1.77915,1.77845 2.36499,3.91059 0.58583,2.13208 -0.13219,4.30853 -0.71801,2.17639 -2.66256,4.12097 z m 16.06642,3.29059 q 0.68514,0.68488 1.03879,1.23724 l -3.41406,2.90583 q -0.29838,-0.51923 -0.88407,-1.10468 -1.61339,-1.61279 -3.34818,-1.68994 -1.72375,-0.0661 -3.2153,1.42542 l -6.28662,6.28662 -3.37045,-3.36914 12.35227,-12.3523 2.5527,2.55176 -1.57984,2.57422 0.16575,0.16565 q 1.6132,-0.46411 3.21543,-0.12183 1.62432,0.34235 2.77358,1.49115 z m 0.75256,12.48358 3.34799,-0.40906 7.21535,-0.29895 3.80142,3.79999 -10.26503,0.45392 -1.78886,12.19659 -3.88983,-3.88836 1.44668,-8.56195 -2.60773,-0.28699 -3.8449,3.84491 -3.37044,-3.36914 17.19153,-17.19153 3.37045,3.36914 -7.66769,7.66767 -2.98314,2.62963 0.0442,0.0441 z m 16.36659,22.45801 q -1.90036,1.90039 -4.22081,1.56915 -2.30938,-0.32013 -4.93943,-2.94922 -1.34819,-1.34765 -2.11072,-2.48547 -0.77358,-1.12677 -1.24883,-2.30878 l 2.78424,-2.78424 q 0.49736,1.38086 1.37043,2.8501 0.88411,1.48029 1.7792,2.37506 1.83441,1.83368 2.89507,0.77301 0.39775,-0.3977 0.3977,-0.88379 0.011,-0.49713 -0.27637,-1.40301 -0.27633,-0.91693 -0.85104,-2.33093 -0.82892,-2.02161 -0.99477,-3.20368 -0.15481,-1.17102 0.18764,-2.1322 0.36455,-0.96118 1.32576,-1.92243 1.64624,-1.64617 3.812,-1.27081 2.18785,0.37543 4.53059,2.71729 2.23223,2.23138 3.37064,5.31353 l -3.44734,1.41437 q -0.53052,-1.32562 -1.08309,-2.38617 -0.55258,-1.06048 -1.39244,-1.90002 -1.49184,-1.49127 -2.29837,-0.68469 -0.453,0.45294 -0.30928,1.2594 0.15477,0.8175 1.12737,3.0932 0.86206,2.03265 1.0279,3.21472 0.16587,1.18207 -0.17659,2.16534 -0.34243,0.98328 -1.25946,1.90027 z" />
      <path
         style="fill:#000000;fill-opacity:0;fill-rule:evenodd"
         id="path35"
         d="m 147.69292,684.39105 175.33858,0 0,99.27563 -175.33858,0 z" />
      <path
         style="fill:#000000;fill-rule:nonzero"
         id="path37"
         d="m 173.49892,728.06885 -5.8125,-15.1875 -0.0937,0 q 0.17187,1.79687 0.17187,4.28125 l 0,10.90625 -1.84375,0 0,-17.14063 3,0 5.42188,14.14063 0.0937,0 5.46875,-14.14063 2.98437,0 0,17.14063 -2,0 0,-11.04688 q 0,-1.89062 0.17188,-4.125 l -0.0937,0 -5.85938,15.17188 -1.60937,0 z m 27.46484,0 -2.26562,0 -9.35938,-14.375 -0.0937,0 q 0.1875,2.53125 0.1875,4.64062 l 0,9.73438 -1.84375,0 0,-17.14063 2.25,0 9.34375,14.32813 0.0937,0 q -0.0312,-0.3125 -0.10937,-2.03125 -0.0781,-1.71875 -0.0625,-2.45313 l 0,-9.84375 1.85937,0 0,17.14063 z m 4.71875,0 0,-17.14063 1.98438,0 0,17.14063 -1.98438,0 z m 16.36328,-4.5625 q 0,2.26562 -1.64062,3.53125 -1.64063,1.26562 -4.45313,1.26562 -3.04687,0 -4.6875,-0.78125 l 0,-1.92187 q 1.04688,0.4375 2.28125,0.70312 1.25,0.25 2.46875,0.25 2,0 3,-0.75 1.01563,-0.76562 1.01563,-2.10937 0,-0.89063 -0.35938,-1.45313 -0.35937,-0.57812 -1.20312,-1.04687 -0.82813,-0.48438 -2.54688,-1.09375 -2.39062,-0.85938 -3.42187,-2.03125 -1.01563,-1.17188 -1.01563,-3.0625 0,-1.96875 1.48438,-3.14063 1.48437,-1.17187 3.9375,-1.17187 2.5625,0 4.70312,0.9375 l -0.625,1.73437 q -2.125,-0.89062 -4.125,-0.89062 -1.57812,0 -2.46875,0.6875 -0.89062,0.67187 -0.89062,1.875 0,0.89062 0.32812,1.46875 0.32813,0.5625 1.10938,1.03125 0.78125,0.46875 2.375,1.04687 2.70312,0.96875 3.71875,2.07813 1.01562,1.09375 1.01562,2.84375 z m 8.76563,4.5625 -1.98438,0 0,-15.35938 -5.42187,0 0,-1.78125 12.84375,0 0,1.78125 -5.4375,0 0,15.35938 z m 21.57422,-15.59375 q -2.8125,0 -4.45313,1.875 -1.64062,1.875 -1.64062,5.15625 0,3.35937 1.57812,5.20312 1.57813,1.82813 4.5,1.82813 1.79688,0 4.09377,-0.65625 l 0,1.75 q -1.78127,0.67187 -4.40627,0.67187 -3.78125,0 -5.84375,-2.29687 -2.04687,-2.29688 -2.04687,-6.53125 0,-2.64063 0.98437,-4.625 1,-2 2.85938,-3.07813 1.875,-1.07812 4.40625,-1.07812 2.6875,0 4.70314,0.98437 l -0.84375,1.70313 q -1.93752,-0.90625 -3.89064,-0.90625 z m 13.37501,2.51562 q 0.85938,0 1.53125,0.14063 l -0.26562,1.79687 q -0.79688,-0.17187 -1.40625,-0.17187 -1.5625,0 -2.67188,1.26562 -1.09375,1.26563 -1.09375,3.15625 l 0,6.89063 -1.95312,0 0,-12.84375 1.60937,0 0.21875,2.375 0.0937,0 q 0.71875,-1.25 1.71875,-1.92188 1.01563,-0.6875 2.21875,-0.6875 z m 11.84372,13.07813 -0.39062,-1.82813 -0.0937,0 q -0.96875,1.20313 -1.92185,1.64063 -0.95312,0.42187 -2.375,0.42187 -1.92187,0 -3,-0.98437 -1.07812,-0.98438 -1.07812,-2.79688 0,-3.89062 6.21875,-4.07812 l 2.17184,-0.0781 0,-0.79687 q 0,-1.51563 -0.65625,-2.23438 -0.64062,-0.71875 -2.06247,-0.71875 -1.60937,0 -3.64062,0.98438 l -0.59375,-1.48438 q 0.95312,-0.51562 2.07812,-0.8125 1.125,-0.29687 2.26563,-0.29687 2.29684,0 3.40622,1.03125 1.10937,1.01562 1.10937,3.26562 l 0,8.76563 -1.4375,0 z m -4.40622,-1.375 q 1.82813,0 2.85935,-0.98438 1.03125,-1 1.03125,-2.79687 l 0,-1.15625 -1.93747,0.0781 q -2.32813,0.0781 -3.35938,0.71875 -1.01562,0.64063 -1.01562,1.98438 0,1.0625 0.64062,1.60937 0.64063,0.54688 1.78125,0.54688 z m 18.12888,-2.125 q 0,1.78125 -1.34375,2.76562 -1.32813,0.96875 -3.73438,0.96875 -2.5625,0 -3.98437,-0.8125 l 0,-1.79687 q 0.92187,0.46875 1.98437,0.73437 1.0625,0.26563 2.04688,0.26563 1.51562,0 2.32812,-0.48438 0.82813,-0.48437 0.82813,-1.48437 0,-0.75 -0.65625,-1.28125 -0.64063,-0.53125 -2.53125,-1.26563 -1.78125,-0.65625 -2.54688,-1.15625 -0.75,-0.5 -1.125,-1.125 -0.35937,-0.64062 -0.35937,-1.51562 0,-1.57813 1.26562,-2.48438 1.28125,-0.90625 3.51563,-0.90625 2.0625,0 4.04687,0.84375 l -0.6875,1.57813 q -1.9375,-0.79688 -3.5,-0.79688 -1.39062,0 -2.09375,0.4375 -0.70312,0.4375 -0.70312,1.1875 0,0.51563 0.26562,0.89063 0.26563,0.35937 0.84375,0.6875 0.59375,0.32812 2.25,0.95312 2.29688,0.82813 3.09375,1.67188 0.79688,0.84375 0.79688,2.125 z m 11.96484,3.5 0,-8.3125 q 0,-1.5625 -0.71875,-2.32813 -0.71875,-0.78125 -2.23437,-0.78125 -2.03125,0 -2.96875,1.10938 -0.92188,1.09375 -0.92188,3.59375 l 0,6.71875 -1.95312,0 0,-18.23438 1.95312,0 0,5.51563 q 0,1 -0.0937,1.65625 l 0.10938,0 q 0.57812,-0.92188 1.64062,-1.45313 1.0625,-0.54687 2.42188,-0.54687 2.34375,0 3.51562,1.125 1.1875,1.125 1.1875,3.5625 l 0,8.375 -1.9375,0 z" />
      <path
         style="fill:#000000;fill-rule:nonzero"
         id="path39"
         d="m 205.51064,741.4751 q -2.8125,0 -4.45313,1.875 -1.64062,1.875 -1.64062,5.15625 0,3.35937 1.57812,5.20312 1.57813,1.82813 4.5,1.82813 1.79688,0 4.09375,-0.65625 l 0,1.75 q -1.78125,0.67187 -4.40625,0.67187 -3.78125,0 -5.84375,-2.29687 -2.04687,-2.29688 -2.04687,-6.53125 0,-2.64063 0.98437,-4.625 1,-2 2.85938,-3.07813 1.875,-1.07812 4.40625,-1.07812 2.6875,0 4.70312,0.98437 l -0.84375,1.70313 q -1.9375,-0.90625 -3.89062,-0.90625 z m 18.60937,9.15625 q 0,3.14062 -1.59375,4.90625 -1.57812,1.76562 -4.35937,1.76562 -1.73438,0 -3.07813,-0.8125 -1.32812,-0.8125 -2.0625,-2.3125 -0.71875,-1.51562 -0.71875,-3.54687 0,-3.14063 1.5625,-4.89063 1.57813,-1.75 4.375,-1.75 2.6875,0 4.28125,1.79688 1.59375,1.78125 1.59375,4.84375 z m -9.79687,0 q 0,2.46875 0.98437,3.76562 0.98438,1.28125 2.90625,1.28125 1.90625,0 2.89063,-1.28125 1,-1.29687 1,-3.76562 0,-2.45313 -1,-3.71875 -0.98438,-1.26563 -2.92188,-1.26563 -1.90625,0 -2.89062,1.25 -0.96875,1.25 -0.96875,3.73438 z m 15.02734,-6.40625 0,8.32812 q 0,1.57813 0.71875,2.35938 0.71875,0.76562 2.23438,0.76562 2.01562,0 2.9375,-1.09375 0.9375,-1.10937 0.9375,-3.60937 l 0,-6.75 1.95312,0 0,12.84375 -1.60937,0 -0.28125,-1.71875 -0.10938,0 q -0.59375,0.9375 -1.65625,1.45312 -1.0625,0.5 -2.42187,0.5 -2.34375,0 -3.51563,-1.10937 -1.15625,-1.125 -1.15625,-3.5625 l 0,-8.40625 1.96875,0 z m 18.76172,-0.23438 q 0.85938,0 1.53125,0.14063 l -0.26562,1.79687 q -0.79688,-0.17187 -1.40625,-0.17187 -1.5625,0 -2.67188,1.26562 -1.09375,1.26563 -1.09375,3.15625 l 0,6.89063 -1.95312,0 0,-12.84375 1.60937,0 0.21875,2.375 0.0937,0 q 0.71875,-1.25 1.71875,-1.92188 1.01563,-0.6875 2.21875,-0.6875 z m 12.21877,9.57813 q 0,1.78125 -1.34375,2.76562 -1.32813,0.96875 -3.73439,0.96875 -2.5625,0 -3.98438,-0.8125 l 0,-1.79687 q 0.92188,0.46875 1.98438,0.73437 1.0625,0.26563 2.04687,0.26563 1.51564,0 2.32814,-0.48438 0.82813,-0.48437 0.82813,-1.48437 0,-0.75 -0.65625,-1.28125 -0.64063,-0.53125 -2.53127,-1.26563 -1.78125,-0.65625 -2.54687,-1.15625 -0.75,-0.5 -1.125,-1.125 -0.35938,-0.64062 -0.35938,-1.51562 0,-1.57813 1.26563,-2.48438 1.28125,-0.90625 3.51564,-0.90625 2.0625,0 4.04687,0.84375 l -0.6875,1.57813 q -1.9375,-0.79688 -3.50001,-0.79688 -1.39063,0 -2.09375,0.4375 -0.70313,0.4375 -0.70313,1.1875 0,0.51563 0.26563,0.89063 0.26562,0.35937 0.84375,0.6875 0.59375,0.32812 2.25001,0.95312 2.29688,0.82813 3.09375,1.67188 0.79688,0.84375 0.79688,2.125 z m 8.58984,3.73437 q -2.84375,0 -4.5,-1.73437 -1.64062,-1.73438 -1.64062,-4.8125 0,-3.10938 1.53125,-4.9375 1.53125,-1.82813 4.10937,-1.82813 2.42188,0 3.82813,1.59375 1.40625,1.57813 1.40625,4.1875 l 0,1.21875 -8.85938,0 q 0.0625,2.26563 1.14063,3.4375 1.09375,1.17188 3.0625,1.17188 2.07812,0 4.09375,-0.85938 l 0,1.73438 q -1.03125,0.4375 -1.95313,0.625 -0.90625,0.20312 -2.21875,0.20312 z m -0.51562,-11.6875 q -1.54688,0 -2.46875,1.01563 -0.92188,1 -1.09375,2.78125 l 6.71875,0 q 0,-1.84375 -0.82813,-2.8125 -0.8125,-0.98438 -2.32812,-0.98438 z" />
      <path
         style="fill:#000000;fill-opacity:0;fill-rule:evenodd"
         id="path43"
         d="m 271.16797,489.04462 127.14963,0 0,99.27557 -127.14963,0 z" />
      <path
         style="fill:#000000;fill-rule:nonzero"
         id="path45"
         d="m 296.21933,517.12866 q -2.8125,0 -4.45312,1.875 -1.64063,1.875 -1.64063,5.15625 0,3.35937 1.57813,5.20312 1.57812,1.82813 4.5,1.82813 1.79687,0 4.09375,-0.65625 l 0,1.75 q -1.78125,0.67187 -4.40625,0.67187 -3.78125,0 -5.84375,-2.29687 -2.04688,-2.29688 -2.04688,-6.53125 0,-2.64063 0.98438,-4.625 1,-2 2.85937,-3.07813 1.875,-1.07812 4.40625,-1.07812 2.6875,0 4.70313,0.98437 l -0.84375,1.70313 q -1.9375,-0.90625 -3.89063,-0.90625 z m 18.60938,9.15625 q 0,3.14062 -1.59375,4.90625 -1.57813,1.76562 -4.35938,1.76562 -1.73437,0 -3.07812,-0.8125 -1.32813,-0.8125 -2.0625,-2.3125 -0.71875,-1.51562 -0.71875,-3.54687 0,-3.14063 1.5625,-4.89063 1.57812,-1.75 4.375,-1.75 2.6875,0 4.28125,1.79688 1.59375,1.78125 1.59375,4.84375 z m -9.79688,0 q 0,2.46875 0.98438,3.76562 0.98437,1.28125 2.90625,1.28125 1.90625,0 2.89062,-1.28125 1,-1.29687 1,-3.76562 0,-2.45313 -1,-3.71875 -0.98437,-1.26563 -2.92187,-1.26563 -1.90625,0 -2.89063,1.25 -0.96875,1.25 -0.96875,3.73438 z m 21.99609,6.4375 0,-8.3125 q 0,-1.5625 -0.71875,-2.32813 -0.71875,-0.78125 -2.23437,-0.78125 -2.01563,0 -2.95313,1.09375 -0.9375,1.07813 -0.9375,3.59375 l 0,6.73438 -1.95312,0 0,-12.84375 1.57812,0 0.32813,1.75 0.0937,0 q 0.59375,-0.9375 1.67187,-1.45313 1.07813,-0.53125 2.40625,-0.53125 2.3125,0 3.48438,1.125 1.17187,1.10938 1.17187,3.57813 l 0,8.375 -1.9375,0 z m 8.7461,0 -4.875,-12.84375 2.09375,0 2.76562,7.60937 q 0.9375,2.67188 1.09375,3.46875 l 0.0937,0 q 0.125,-0.60937 0.8125,-2.5625 0.6875,-1.95312 3.07813,-8.51562 l 2.09375,0 -4.875,12.84375 -2.28125,0 z m 22.88281,0 -2.26563,0 -9.35937,-14.375 -0.0937,0 q 0.1875,2.53125 0.1875,4.64062 l 0,9.73438 -1.84375,0 0,-17.14063 2.25,0 9.34375,14.32813 0.0937,0 q -0.0312,-0.3125 -0.10938,-2.03125 -0.0781,-1.71875 -0.0625,-2.45313 l 0,-9.84375 1.85938,0 0,17.14063 z m 9.84375,0.23437 q -2.84375,0 -4.5,-1.73437 -1.64063,-1.73438 -1.64063,-4.8125 0,-3.10938 1.53125,-4.9375 1.53125,-1.82813 4.10938,-1.82813 2.42187,0 3.82812,1.59375 1.40625,1.57813 1.40625,4.1875 l 0,1.21875 -8.85937,0 q 0.0625,2.26563 1.14062,3.4375 1.09375,1.17188 3.0625,1.17188 2.07813,0 4.09375,-0.85938 l 0,1.73438 q -1.03125,0.4375 -1.95312,0.625 -0.90625,0.20312 -2.21875,0.20312 z m -0.51563,-11.6875 q -1.54687,0 -2.46875,1.01563 -0.92187,1 -1.09375,2.78125 l 6.71875,0 q 0,-1.84375 -0.82812,-2.8125 -0.8125,-0.98438 -2.32813,-0.98438 z m 12.71485,10.07813 q 0.51562,0 0.98437,-0.0781 0.48438,-0.0781 0.76563,-0.15625 l 0,1.48438 q -0.3125,0.15625 -0.9375,0.25 -0.60938,0.10937 -1.09375,0.10937 -3.73438,0 -3.73438,-3.92187 l 0,-7.64063 -1.84375,0 0,-0.9375 1.84375,-0.8125 0.82813,-2.75 1.125,0 0,2.98438 3.71875,0 0,1.51562 -3.71875,0 0,7.54688 q 0,1.17187 0.54687,1.79687 0.54688,0.60938 1.51563,0.60938 z" />
      <path
         style="fill:#000000;fill-rule:nonzero"
         id="path47"
         d="m 302.38535,554.3943 q 0,-5.04687 1.95313,-7.54687 1.96875,-2.5 5.8125,-2.5 1.32812,0 2.09375,0.21875 l 0,1.67187 q -0.90625,-0.29687 -2.0625,-0.29687 -2.76563,0 -4.21875,1.71875 -1.45313,1.71875 -1.59375,5.40625 l 0.14062,0 q 1.29688,-2.01563 4.07813,-2.01563 2.3125,0 3.64062,1.39063 1.32813,1.39062 1.32813,3.78125 0,2.67187 -1.45313,4.20312 -1.45312,1.53125 -3.9375,1.53125 -2.67187,0 -4.23437,-2 -1.54688,-2 -1.54688,-5.5625 z m 5.75,5.90625 q 1.67188,0 2.57813,-1.04687 0.92187,-1.04688 0.92187,-3.03125 0,-1.70313 -0.85937,-2.67188 -0.84375,-0.96875 -2.54688,-0.96875 -1.04687,0 -1.9375,0.4375 -0.875,0.42188 -1.40625,1.1875 -0.51562,0.76563 -0.51562,1.57813 0,1.21875 0.46875,2.26562 0.46875,1.03125 1.32812,1.64063 0.875,0.60937 1.96875,0.60937 z m 19.84766,-2.51562 -2.54688,0 0,3.9375 -1.85937,0 0,-3.9375 -8.34375,0 0,-1.70313 8.14062,-11.59375 2.0625,0 0,11.53125 2.54688,0 0,1.76563 z m -4.40625,-1.76563 0,-5.70312 q 0,-1.67188 0.10937,-3.78125 l -0.0937,0 q -0.5625,1.125 -1.04687,1.85937 l -5.35938,7.625 6.39063,0 z m 10.03515,-0.875 -4.46875,-6.26562 2.21875,0 3.39063,4.92187 3.375,-4.92187 2.1875,0 -4.46875,6.26562 4.70312,6.57813 -2.20312,0 -3.59375,-5.20313 -3.64063,5.20313 -2.20312,0 4.70312,-6.57813 z m 8.79297,-0.75 q 0,-5.04687 1.95313,-7.54687 1.96875,-2.5 5.8125,-2.5 1.32812,0 2.09375,0.21875 l 0,1.67187 q -0.90625,-0.29687 -2.0625,-0.29687 -2.76563,0 -4.21875,1.71875 -1.45313,1.71875 -1.59375,5.40625 l 0.14062,0 q 1.29688,-2.01563 4.07813,-2.01563 2.3125,0 3.64062,1.39063 1.32813,1.39062 1.32813,3.78125 0,2.67187 -1.45313,4.20312 -1.45312,1.53125 -3.9375,1.53125 -2.67187,0 -4.23437,-2 -1.54688,-2 -1.54688,-5.5625 z m 5.75,5.90625 q 1.67188,0 2.57813,-1.04687 0.92187,-1.04688 0.92187,-3.03125 0,-1.70313 -0.85937,-2.67188 -0.84375,-0.96875 -2.54688,-0.96875 -1.04687,0 -1.9375,0.4375 -0.875,0.42188 -1.40625,1.1875 -0.51562,0.76563 -0.51562,1.57813 0,1.21875 0.46875,2.26562 0.46875,1.03125 1.32812,1.64063 0.875,0.60937 1.96875,0.60937 z m 19.84766,-2.51562 -2.54688,0 0,3.9375 -1.85937,0 0,-3.9375 -8.34375,0 0,-1.70313 8.14062,-11.59375 2.0625,0 0,11.53125 2.54688,0 0,1.76563 z m -4.40625,-1.76563 0,-5.70312 q 0,-1.67188 0.10937,-3.78125 l -0.0937,0 q -0.5625,1.125 -1.04687,1.85937 l -5.35938,7.625 6.39063,0 z" />
      <path
         style="fill:#000000;fill-opacity:0;fill-rule:evenodd"
         id="path51"
         d="m 416.4252,729.5407 127.14963,0 0,99.27557 -127.14963,0 z" />
      <path
         style="fill:#000000;fill-rule:nonzero"
         id="path53"
         d="m 467.1172,755.2185 q 0,1.78125 -1.34375,2.76562 -1.32812,0.96875 -3.73437,0.96875 -2.5625,0 -3.98438,-0.8125 l 0,-1.79687 q 0.92188,0.46875 1.98438,0.73437 1.0625,0.26563 2.04687,0.26563 1.51563,0 2.32813,-0.48438 0.82812,-0.48437 0.82812,-1.48437 0,-0.75 -0.65625,-1.28125 -0.64062,-0.53125 -2.53125,-1.26563 -1.78125,-0.65625 -2.54687,-1.15625 -0.75,-0.5 -1.125,-1.125 -0.35938,-0.64062 -0.35938,-1.51562 0,-1.57813 1.26563,-2.48438 1.28125,-0.90625 3.51562,-0.90625 2.0625,0 4.04688,0.84375 l -0.6875,1.57813 q -1.9375,-0.79688 -3.5,-0.79688 -1.39063,0 -2.09375,0.4375 -0.70313,0.4375 -0.70313,1.1875 0,0.51563 0.26563,0.89063 0.26562,0.35937 0.84375,0.6875 0.59375,0.32812 2.25,0.95312 2.29687,0.82813 3.09375,1.67188 0.79687,0.84375 0.79687,2.125 z m 5.12109,3.5 -1.95312,0 0,-12.84375 1.95312,0 0,12.84375 z m -2.10937,-16.32813 q 0,-0.67187 0.32812,-0.96875 0.32813,-0.3125 0.8125,-0.3125 0.46875,0 0.8125,0.3125 0.34375,0.3125 0.34375,0.96875 0,0.65625 -0.34375,0.98438 -0.34375,0.3125 -0.8125,0.3125 -0.48437,0 -0.8125,-0.3125 -0.32812,-0.32813 -0.32812,-0.98438 z m 15.02344,16.32813 0,-8.3125 q 0,-1.5625 -0.71875,-2.32813 -0.71875,-0.78125 -2.23438,-0.78125 -2.01562,0 -2.95312,1.09375 -0.9375,1.07813 -0.9375,3.59375 l 0,6.73438 -1.95313,0 0,-12.84375 1.57813,0 0.32812,1.75 0.0937,0 q 0.59375,-0.9375 1.67188,-1.45313 1.07812,-0.53125 2.40625,-0.53125 2.3125,0 3.48437,1.125 1.17188,1.10938 1.17188,3.57813 l 0,8.375 -1.9375,0 z m 4.83984,-6.57813 q 0,-3.10937 0.90625,-5.8125 0.90625,-2.70312 2.60938,-4.75 l 1.90625,0 q -1.6875,2.26563 -2.54688,4.98438 -0.84375,2.70312 -0.84375,5.5625 0,2.8125 0.85938,5.5 0.875,2.67187 2.5,4.89062 l -1.875,0 q -1.71875,-1.98437 -2.625,-4.64062 -0.89063,-2.67188 -0.89063,-5.73438 z m 12.27344,0 q 0,3.07813 -0.90625,5.75 -0.90625,2.65625 -2.625,4.625 l -1.875,0 q 1.64062,-2.20312 2.5,-4.89062 0.875,-2.6875 0.875,-5.5 0,-2.85938 -0.85938,-5.5625 -0.84375,-2.71875 -2.53125,-4.98438 l 1.89063,0 q 1.73437,2.0625 2.625,4.78125 0.90625,2.70313 0.90625,5.78125 z" />
      <path
         style="fill:#000000;fill-rule:nonzero"
         id="path55"
         d="m 463.79492,787.7185 -2.34375,-7.53125 q -0.23438,-0.70313 -0.84375,-3.14063 l -0.0937,0 q -0.46875,2.04688 -0.8125,3.15625 l -2.42188,7.51563 -2.25,0 -3.51562,-12.84375 2.04687,0 q 1.23438,4.84375 1.89063,7.375 0.65625,2.53125 0.75,3.40625 l 0.0937,0 q 0.125,-0.67188 0.40625,-1.73438 0.29687,-1.0625 0.5,-1.67187 l 2.35937,-7.375 2.10938,0 2.29687,7.375 q 0.65625,2.01562 0.89063,3.375 l 0.0937,0 q 0.0469,-0.42188 0.25,-1.29688 0.20312,-0.875 2.4375,-9.45312 l 2.01562,0 -3.54687,12.84375 -2.3125,0 z m 16.08984,0 -0.39062,-1.82813 -0.0937,0 q -0.96875,1.20313 -1.92188,1.64063 -0.95312,0.42187 -2.375,0.42187 -1.92187,0 -3,-0.98437 -1.07812,-0.98438 -1.07812,-2.79688 0,-3.89062 6.21875,-4.07812 l 2.17187,-0.0781 0,-0.79687 q 0,-1.51563 -0.65625,-2.23438 -0.64062,-0.71875 -2.0625,-0.71875 -1.60937,0 -3.64062,0.98438 l -0.59375,-1.48438 q 0.95312,-0.51562 2.07812,-0.8125 1.125,-0.29687 2.26563,-0.29687 2.29687,0 3.40625,1.03125 1.10937,1.01562 1.10937,3.26562 l 0,8.76563 -1.4375,0 z m -4.40625,-1.375 q 1.82813,0 2.85938,-0.98438 1.03125,-1 1.03125,-2.79687 l 0,-1.15625 -1.9375,0.0781 q -2.32813,0.0781 -3.35938,0.71875 -1.01562,0.64063 -1.01562,1.98438 0,1.0625 0.64062,1.60937 0.64063,0.54688 1.78125,0.54688 z m 12.66016,1.375 -4.875,-12.84375 2.09375,0 2.76563,7.60937 q 0.9375,2.67188 1.09375,3.46875 l 0.0937,0 q 0.125,-0.60937 0.8125,-2.5625 0.6875,-1.95312 3.07812,-8.51562 l 2.09375,0 -4.875,12.84375 -2.28125,0 z m 14.63281,0.23437 q -2.84375,0 -4.5,-1.73437 -1.64062,-1.73438 -1.64062,-4.8125 0,-3.10938 1.53125,-4.9375 1.53125,-1.82813 4.10937,-1.82813 2.42188,0 3.82813,1.59375 1.40625,1.57813 1.40625,4.1875 l 0,1.21875 -8.85938,0 q 0.0625,2.26563 1.14063,3.4375 1.09375,1.17188 3.0625,1.17188 2.07812,0 4.09375,-0.85938 l 0,1.73438 q -1.03125,0.4375 -1.95313,0.625 -0.90625,0.20312 -2.21875,0.20312 z m -0.51562,-11.6875 q -1.54688,0 -2.46875,1.01563 -0.92188,1 -1.09375,2.78125 l 6.71875,0 q 0,-1.84375 -0.82813,-2.8125 -0.8125,-0.98438 -2.32812,-0.98438 z" />
      <path
         style="fill:#000000;fill-rule:nonzero"
         id="path57"
         d="m 441.8789,804.5779 q 0,2.59375 -1.78125,4 -1.76563,1.40625 -5.07813,1.40625 l -2.01562,0 0,6.73437 -1.98438,0 0,-17.14062 4.4375,0 q 6.42188,0 6.42188,5 z m -8.875,3.6875 1.79687,0 q 2.65625,0 3.82813,-0.84375 1.1875,-0.85938 1.1875,-2.75 0,-1.70313 -1.10938,-2.53125 -1.10937,-0.82813 -3.46875,-0.82813 l -2.23437,0 0,6.95313 z m 18.02734,-4.625 q 0.85938,0 1.53125,0.14062 l -0.26562,1.79688 q -0.79688,-0.17188 -1.40625,-0.17188 -1.5625,0 -2.67188,1.26563 -1.09375,1.26562 -1.09375,3.15625 l 0,6.89062 -1.95312,0 0,-12.84375 1.60937,0 0.21875,2.375 0.0937,0 q 0.71875,-1.25 1.71875,-1.92187 1.01563,-0.6875 2.21875,-0.6875 z m 9.35938,13.3125 q -2.84375,0 -4.5,-1.73438 -1.64063,-1.73437 -1.64063,-4.8125 0,-3.10937 1.53125,-4.9375 1.53125,-1.82812 4.10938,-1.82812 2.42187,0 3.82812,1.59375 1.40625,1.57812 1.40625,4.1875 l 0,1.21875 -8.85937,0 q 0.0625,2.26562 1.14062,3.4375 1.09375,1.17187 3.0625,1.17187 2.07813,0 4.09375,-0.85937 l 0,1.73437 q -1.03125,0.4375 -1.95312,0.625 -0.90625,0.20313 -2.21875,0.20313 z m -0.51563,-11.6875 q -1.54687,0 -2.46875,1.01562 -0.92187,1 -1.09375,2.78125 l 6.71875,0 q 0,-1.84375 -0.82812,-2.8125 -0.8125,-0.98437 -2.32813,-0.98437 z m 17.3086,9.73437 -0.10938,0 q -1.34375,1.95313 -4.03125,1.95313 -2.51562,0 -3.92187,-1.71875 -1.40625,-1.73438 -1.40625,-4.90625 0,-3.17188 1.40625,-4.92188 1.40625,-1.76562 3.92187,-1.76562 2.60938,0 4,1.89062 l 0.15625,0 -0.0781,-0.92187 -0.0469,-0.90625 0,-5.21875 1.9375,0 0,18.23437 -1.57812,0 -0.25,-1.71875 z m -3.89063,0.32813 q 1.98438,0 2.875,-1.07813 0.90625,-1.09375 0.90625,-3.51562 l 0,-0.40625 q 0,-2.73438 -0.90625,-3.89063 -0.90625,-1.17187 -2.90625,-1.17187 -1.70312,0 -2.625,1.32812 -0.90625,1.32813 -0.90625,3.76563 0,2.45312 0.90625,3.71875 0.90625,1.25 2.65625,1.25 z m 11.80078,1.39062 -1.95312,0 0,-12.84375 1.95312,0 0,12.84375 z m -2.10937,-16.32812 q 0,-0.67188 0.32812,-0.96875 0.32813,-0.3125 0.8125,-0.3125 0.46875,0 0.8125,0.3125 0.34375,0.3125 0.34375,0.96875 0,0.65625 -0.34375,0.98437 -0.34375,0.3125 -0.8125,0.3125 -0.48437,0 -0.8125,-0.3125 -0.32812,-0.32812 -0.32812,-0.98437 z m 11.36719,16.5625 q -2.79688,0 -4.32813,-1.71875 -1.53125,-1.71875 -1.53125,-4.85938 0,-3.21875 1.54688,-4.96875 1.5625,-1.76562 4.4375,-1.76562 0.92187,0 1.84375,0.20312 0.9375,0.1875 1.45312,0.46875 l -0.59375,1.64063 q -0.64062,-0.25 -1.40625,-0.42188 -0.76562,-0.17187 -1.34375,-0.17187 -3.92187,0 -3.92187,5 0,2.35937 0.95312,3.625 0.96875,1.26562 2.84375,1.26562 1.59375,0 3.28125,-0.6875 l 0,1.71875 q -1.28125,0.67188 -3.23437,0.67188 z m 10.4414,-1.60938 q 0.51563,0 0.98438,-0.0781 0.48437,-0.0781 0.76562,-0.15625 l 0,1.48437 q -0.3125,0.15625 -0.9375,0.25 -0.60937,0.10938 -1.09375,0.10938 -3.73437,0 -3.73437,-3.92188 l 0,-7.64062 -1.84375,0 0,-0.9375 1.84375,-0.8125 0.82812,-2.75 1.125,0 0,2.98437 3.71875,0 0,1.51563 -3.71875,0 0,7.54687 q 0,1.17188 0.54688,1.79688 0.54687,0.60937 1.51562,0.60937 z m 15.41016,-5.0625 q 0,3.14063 -1.59375,4.90625 -1.57813,1.76563 -4.35938,1.76563 -1.73437,0 -3.07812,-0.8125 -1.32813,-0.8125 -2.0625,-2.3125 -0.71875,-1.51563 -0.71875,-3.54688 0,-3.14062 1.5625,-4.89062 1.57812,-1.75 4.375,-1.75 2.6875,0 4.28125,1.79687 1.59375,1.78125 1.59375,4.84375 z m -9.79688,0 q 0,2.46875 0.98438,3.76563 0.98437,1.28125 2.90625,1.28125 1.90625,0 2.89062,-1.28125 1,-1.29688 1,-3.76563 0,-2.45312 -1,-3.71875 -0.98437,-1.26562 -2.92187,-1.26562 -1.90625,0 -2.89063,1.25 -0.96875,1.25 -0.96875,3.73437 z m 19.0586,-6.64062 q 0.85937,0 1.53125,0.14062 l -0.26563,1.79688 q -0.79687,-0.17188 -1.40625,-0.17188 -1.5625,0 -2.67187,1.26563 -1.09375,1.26562 -1.09375,3.15625 l 0,6.89062 -1.95313,0 0,-12.84375 1.60938,0 0.21875,2.375 0.0937,0 q 0.71875,-1.25 1.71875,-1.92187 1.01562,-0.6875 2.21875,-0.6875 z" />
      <path
         style="fill:#000000;fill-opacity:0;fill-rule:evenodd"
         id="path59"
         d="m 690.1706,711.937 127.1496,0 0,99.27557 -127.1496,0 z" />
      <path
         style="fill:#000000;fill-rule:nonzero"
         id="path61"
         d="m 729.3704,760.13043 q -1.10937,0 -1.73437,-0.3125 l 0,-1.70312 q 0.82812,0.23437 1.73437,0.23437 1.15625,0 1.76563,-0.70312 0.60937,-0.70313 0.60937,-2.03125 l 0,-17.14063 1.98438,0 0,16.96875 q 0,2.23438 -1.125,3.45313 -1.125,1.23437 -3.23438,1.23437 z m 10.44141,-17.35937 0,8.32812 q 0,1.57813 0.71875,2.35938 0.71875,0.76562 2.23437,0.76562 2.01563,0 2.9375,-1.09375 0.9375,-1.10937 0.9375,-3.60937 l 0,-6.75 1.95313,0 0,12.84375 -1.60938,0 -0.28125,-1.71875 -0.10937,0 q -0.59375,0.9375 -1.65625,1.45312 -1.0625,0.5 -2.42188,0.5 -2.34375,0 -3.51562,-1.10937 -1.15625,-1.125 -1.15625,-3.5625 l 0,-8.40625 1.96875,0 z m 21.69922,12.84375 0,-8.3125 q 0,-1.5625 -0.71875,-2.32813 -0.71875,-0.78125 -2.23438,-0.78125 -2.01562,0 -2.95312,1.09375 -0.9375,1.07813 -0.9375,3.59375 l 0,6.73438 -1.95313,0 0,-12.84375 1.57813,0 0.32812,1.75 0.0937,0 q 0.59375,-0.9375 1.67188,-1.45313 1.07812,-0.53125 2.40625,-0.53125 2.3125,0 3.48437,1.125 1.17188,1.10938 1.17188,3.57813 l 0,8.375 -1.9375,0 z m 7.85546,-6.57813 q 0.5,-0.71875 1.53125,-1.875 l 4.15625,-4.39062 2.3125,0 -5.20312,5.46875 5.5625,7.375 -2.35938,0 -4.53125,-6.07813 -1.46875,1.26563 0,4.8125 -1.92187,0 0,-18.23438 1.92187,0 0,9.67188 q 0,0.64062 -0.0937,1.98437 l 0.0937,0 z" />
      <path
         style="fill:#000000;fill-rule:nonzero"
         id="path63"
         d="m 725.8177,784.6148 0,-17.14063 1.98437,0 0,15.32813 7.5625,0 0,1.8125 -9.54687,0 z m 22.12891,-4.5625 q 0,2.26562 -1.64063,3.53125 -1.64062,1.26562 -4.45312,1.26562 -3.04688,0 -4.6875,-0.78125 l 0,-1.92187 q 1.04687,0.4375 2.28125,0.70312 1.25,0.25 2.46875,0.25 2,0 3,-0.75 1.01562,-0.76562 1.01562,-2.10937 0,-0.89063 -0.35937,-1.45313 -0.35938,-0.57812 -1.20313,-1.04687 -0.82812,-0.48438 -2.54687,-1.09375 -2.39063,-0.85938 -3.42188,-2.03125 -1.01562,-1.17188 -1.01562,-3.0625 0,-1.96875 1.48437,-3.14063 1.48438,-1.17187 3.9375,-1.17187 2.5625,0 4.70313,0.9375 l -0.625,1.73437 q -2.125,-0.89062 -4.125,-0.89062 -1.57813,0 -2.46875,0.6875 -0.89063,0.67187 -0.89063,1.875 0,0.89062 0.32813,1.46875 0.32812,0.5625 1.10937,1.03125 0.78125,0.46875 2.375,1.04687 2.70313,0.96875 3.71875,2.07813 1.01563,1.09375 1.01563,2.84375 z m 8.76562,4.5625 -1.98437,0 0,-15.35938 -5.42188,0 0,-1.78125 12.84375,0 0,1.78125 -5.4375,0 0,15.35938 z m 15.58984,0 -5.8125,-15.1875 -0.0937,0 q 0.17188,1.79687 0.17188,4.28125 l 0,10.90625 -1.84375,0 0,-17.14063 3,0 5.42187,14.14063 0.0937,0 5.46875,-14.14063 2.98438,0 0,17.14063 -2,0 0,-11.04688 q 0,-1.89062 0.17187,-4.125 l -0.0937,0 -5.85937,15.17188 -1.60938,0 z" />
      <path
         style="fill:#000000;fill-opacity:0;fill-rule:evenodd"
         id="path65"
         d="m 397.2257,267.83334 165.54333,0 0,105.13385 -165.54333,0 z" />
      <path
         style="fill:#000000;fill-rule:nonzero"
         id="path67"
         d="m 441.47394,298.8465 q -2.8125,0 -4.45312,1.875 -1.64063,1.875 -1.64063,5.15625 0,3.35937 1.57813,5.20312 1.57812,1.82813 4.5,1.82813 1.79687,0 4.09375,-0.65625 l 0,1.75 q -1.78125,0.67187 -4.40625,0.67187 -3.78125,0 -5.84375,-2.29687 -2.04688,-2.29688 -2.04688,-6.53125 0,-2.64063 0.98438,-4.625 1,-2 2.85937,-3.07813 1.875,-1.07812 4.40625,-1.07812 2.6875,0 4.70313,0.98437 l -0.84375,1.70313 q -1.9375,-0.90625 -3.89063,-0.90625 z m 18.60938,9.15625 q 0,3.14062 -1.59375,4.90625 -1.57813,1.76562 -4.35938,1.76562 -1.73437,0 -3.07812,-0.8125 -1.32813,-0.8125 -2.0625,-2.3125 -0.71875,-1.51562 -0.71875,-3.54687 0,-3.14063 1.5625,-4.89063 1.57812,-1.75 4.375,-1.75 2.6875,0 4.28125,1.79688 1.59375,1.78125 1.59375,4.84375 z m -9.79688,0 q 0,2.46875 0.98438,3.76562 0.98437,1.28125 2.90625,1.28125 1.90625,0 2.89062,-1.28125 1,-1.29687 1,-3.76562 0,-2.45313 -1,-3.71875 -0.98437,-1.26563 -2.92187,-1.26563 -1.90625,0 -2.89063,1.25 -0.96875,1.25 -0.96875,3.73438 z m 21.99609,6.4375 0,-8.3125 q 0,-1.5625 -0.71875,-2.32813 -0.71875,-0.78125 -2.23437,-0.78125 -2.01563,0 -2.95313,1.09375 -0.9375,1.07813 -0.9375,3.59375 l 0,6.73438 -1.95312,0 0,-12.84375 1.57812,0 0.32813,1.75 0.0937,0 q 0.59375,-0.9375 1.67187,-1.45313 1.07813,-0.53125 2.40625,-0.53125 2.3125,0 3.48438,1.125 1.17187,1.10938 1.17187,3.57813 l 0,8.375 -1.9375,0 z m 8.7461,0 -4.875,-12.84375 2.09375,0 2.76562,7.60937 q 0.9375,2.67188 1.09375,3.46875 l 0.0937,0 q 0.125,-0.60937 0.8125,-2.5625 0.6875,-1.95312 3.07813,-8.51562 l 2.09375,0 -4.875,12.84375 -2.28125,0 z m 22.88281,0 -2.26562,0 -9.35938,-14.375 -0.0937,0 q 0.1875,2.53125 0.1875,4.64062 l 0,9.73438 -1.84375,0 0,-17.14063 2.25,0 9.34375,14.32813 0.0937,0 q -0.0312,-0.3125 -0.10937,-2.03125 -0.0781,-1.71875 -0.0625,-2.45313 l 0,-9.84375 1.85937,0 0,17.14063 z m 9.84375,0.23437 q -2.84375,0 -4.5,-1.73437 -1.64062,-1.73438 -1.64062,-4.8125 0,-3.10938 1.53125,-4.9375 1.53125,-1.82813 4.10937,-1.82813 2.42188,0 3.82813,1.59375 1.40625,1.57813 1.40625,4.1875 l 0,1.21875 -8.85938,0 q 0.0625,2.26563 1.14063,3.4375 1.09375,1.17188 3.0625,1.17188 2.07812,0 4.09375,-0.85938 l 0,1.73438 q -1.03125,0.4375 -1.95313,0.625 -0.90625,0.20312 -2.21875,0.20312 z m -0.51562,-11.6875 q -1.54688,0 -2.46875,1.01563 -0.92188,1 -1.09375,2.78125 l 6.71875,0 q 0,-1.84375 -0.82813,-2.8125 -0.8125,-0.98438 -2.32812,-0.98438 z m 12.71484,10.07813 q 0.51562,0 0.98437,-0.0781 0.48438,-0.0781 0.76563,-0.15625 l 0,1.48438 q -0.3125,0.15625 -0.9375,0.25 -0.60938,0.10937 -1.09375,0.10937 -3.73438,0 -3.73438,-3.92187 l 0,-7.64063 -1.84375,0 0,-0.9375 1.84375,-0.8125 0.82813,-2.75 1.125,0 0,2.98438 3.71875,0 0,1.51562 -3.71875,0 0,7.54688 q 0,1.17187 0.54687,1.79687 0.54688,0.60938 1.51563,0.60938 z" />
      <path
         style="fill:#000000;fill-rule:nonzero"
         id="path69"
         d="m 458.06183,330.33087 q 0,1.64062 -0.92188,2.6875 -0.92187,1.04687 -2.60937,1.39062 l 0,0.0937 q 2.0625,0.26563 3.04687,1.32813 1,1.04687 1,2.75 0,2.45312 -1.70312,3.78125 -1.6875,1.3125 -4.8125,1.3125 -1.35938,0 -2.5,-0.20313 -1.125,-0.20312 -2.1875,-0.71875 l 0,-1.85937 q 1.10937,0.54687 2.35937,0.84375 1.26563,0.28125 2.39063,0.28125 4.4375,0 4.4375,-3.48438 0,-3.10937 -4.89063,-3.10937 l -1.6875,0 0,-1.67188 1.70313,0 q 2.01562,0 3.1875,-0.89062 1.17187,-0.89063 1.17187,-2.45313 0,-1.25 -0.875,-1.96875 -0.85937,-0.71875 -2.32812,-0.71875 -1.125,0 -2.125,0.3125 -1,0.29688 -2.26563,1.125 l -0.98437,-1.3125 q 1.04687,-0.84375 2.42187,-1.3125 1.375,-0.46875 2.90625,-0.46875 2.5,0 3.875,1.14063 1.39063,1.14062 1.39063,3.125 z m 14.36328,13.10937 -11.26562,0 0,-1.67187 4.51562,-4.54688 q 2.0625,-2.07812 2.71875,-2.96875 0.65625,-0.89062 0.98438,-1.73437 0.32812,-0.84375 0.32812,-1.8125 0,-1.375 -0.84375,-2.17188 -0.82812,-0.8125 -2.29687,-0.8125 -1.0625,0 -2.03125,0.35938 -0.95313,0.34375 -2.125,1.26562 l -1.03125,-1.3125 q 2.375,-1.96875 5.15625,-1.96875 2.42187,0 3.78125,1.23438 1.375,1.23437 1.375,3.3125 0,1.64062 -0.92188,3.23437 -0.90625,1.59375 -3.40625,4.03125 l -3.75,3.65625 0,0.0937 8.8125,0 0,1.8125 z m 6.44141,-6.57812 -4.46875,-6.26563 2.21875,0 3.39062,4.92188 3.375,-4.92188 2.1875,0 -4.46875,6.26563 4.70313,6.57812 -2.20313,0 -3.59375,-5.20312 -3.64062,5.20312 -2.20313,0 4.70313,-6.57812 z m 19.21484,-6.53125 q 0,1.64062 -0.92187,2.6875 -0.92188,1.04687 -2.60938,1.39062 l 0,0.0937 q 2.0625,0.26563 3.04688,1.32813 1,1.04687 1,2.75 0,2.45312 -1.70313,3.78125 -1.6875,1.3125 -4.8125,1.3125 -1.35937,0 -2.5,-0.20313 -1.125,-0.20312 -2.1875,-0.71875 l 0,-1.85937 q 1.10938,0.54687 2.35938,0.84375 1.26562,0.28125 2.39062,0.28125 4.4375,0 4.4375,-3.48438 0,-3.10937 -4.89062,-3.10937 l -1.6875,0 0,-1.67188 1.70312,0 q 2.01563,0 3.1875,-0.89062 1.17188,-0.89063 1.17188,-2.45313 0,-1.25 -0.875,-1.96875 -0.85938,-0.71875 -2.32813,-0.71875 -1.125,0 -2.125,0.3125 -1,0.29688 -2.26562,1.125 l -0.98438,-1.3125 q 1.04688,-0.84375 2.42188,-1.3125 1.375,-0.46875 2.90625,-0.46875 2.5,0 3.875,1.14063 1.39062,1.14062 1.39062,3.125 z m 14.36328,13.10937 -11.26562,0 0,-1.67187 4.51562,-4.54688 q 2.0625,-2.07812 2.71875,-2.96875 0.65625,-0.89062 0.98438,-1.73437 0.32812,-0.84375 0.32812,-1.8125 0,-1.375 -0.84375,-2.17188 -0.82812,-0.8125 -2.29687,-0.8125 -1.0625,0 -2.03125,0.35938 -0.95313,0.34375 -2.125,1.26562 l -1.03125,-1.3125 q 2.375,-1.96875 5.15625,-1.96875 2.42187,0 3.78125,1.23438 1.375,1.23437 1.375,3.3125 0,1.64062 -0.92188,3.23437 -0.90625,1.59375 -3.40625,4.03125 l -3.75,3.65625 0,0.0937 8.8125,0 0,1.8125 z" />
      <path
         style="fill:#000000;fill-opacity:0;fill-rule:evenodd"
         id="path73"
         d="m 561.6877,489.04462 127.1496,0 0,99.27557 -127.1496,0 z" />
      <path
         style="fill:#000000;fill-rule:nonzero"
         id="path75"
         d="m 586.739,517.12866 q -2.8125,0 -4.45312,1.875 -1.64063,1.875 -1.64063,5.15625 0,3.35937 1.57813,5.20312 1.57812,1.82813 4.5,1.82813 1.79687,0 4.09375,-0.65625 l 0,1.75 q -1.78125,0.67187 -4.40625,0.67187 -3.78125,0 -5.84375,-2.29687 -2.04688,-2.29688 -2.04688,-6.53125 0,-2.64063 0.98438,-4.625 1,-2 2.85937,-3.07813 1.875,-1.07812 4.40625,-1.07812 2.6875,0 4.70313,0.98437 l -0.84375,1.70313 q -1.9375,-0.90625 -3.89063,-0.90625 z m 18.60938,9.15625 q 0,3.14062 -1.59375,4.90625 -1.57813,1.76562 -4.35938,1.76562 -1.73437,0 -3.07812,-0.8125 -1.32813,-0.8125 -2.0625,-2.3125 -0.71875,-1.51562 -0.71875,-3.54687 0,-3.14063 1.5625,-4.89063 1.57812,-1.75 4.375,-1.75 2.6875,0 4.28125,1.79688 1.59375,1.78125 1.59375,4.84375 z m -9.79688,0 q 0,2.46875 0.98438,3.76562 0.98437,1.28125 2.90625,1.28125 1.90625,0 2.89062,-1.28125 1,-1.29687 1,-3.76562 0,-2.45313 -1,-3.71875 -0.98437,-1.26563 -2.92187,-1.26563 -1.90625,0 -2.89063,1.25 -0.96875,1.25 -0.96875,3.73438 z m 21.99609,6.4375 0,-8.3125 q 0,-1.5625 -0.71875,-2.32813 -0.71875,-0.78125 -2.23437,-0.78125 -2.01563,0 -2.95313,1.09375 -0.9375,1.07813 -0.9375,3.59375 l 0,6.73438 -1.95312,0 0,-12.84375 1.57812,0 0.32813,1.75 0.0937,0 q 0.59375,-0.9375 1.67187,-1.45313 1.07813,-0.53125 2.40625,-0.53125 2.3125,0 3.48438,1.125 1.17187,1.10938 1.17187,3.57813 l 0,8.375 -1.9375,0 z m 8.7461,0 -4.875,-12.84375 2.09375,0 2.76562,7.60937 q 0.9375,2.67188 1.09375,3.46875 l 0.0937,0 q 0.125,-0.60937 0.8125,-2.5625 0.6875,-1.95312 3.07813,-8.51562 l 2.09375,0 -4.875,12.84375 -2.28125,0 z m 22.88281,0 -2.26562,0 -9.35938,-14.375 -0.0937,0 q 0.1875,2.53125 0.1875,4.64062 l 0,9.73438 -1.84375,0 0,-17.14063 2.25,0 9.34375,14.32813 0.0937,0 q -0.0312,-0.3125 -0.10937,-2.03125 -0.0781,-1.71875 -0.0625,-2.45313 l 0,-9.84375 1.85937,0 0,17.14063 z m 9.84375,0.23437 q -2.84375,0 -4.5,-1.73437 -1.64062,-1.73438 -1.64062,-4.8125 0,-3.10938 1.53125,-4.9375 1.53125,-1.82813 4.10937,-1.82813 2.42188,0 3.82813,1.59375 1.40625,1.57813 1.40625,4.1875 l 0,1.21875 -8.85938,0 q 0.0625,2.26563 1.14063,3.4375 1.09375,1.17188 3.0625,1.17188 2.07812,0 4.09375,-0.85938 l 0,1.73438 q -1.03125,0.4375 -1.95313,0.625 -0.90625,0.20312 -2.21875,0.20312 z m -0.51562,-11.6875 q -1.54688,0 -2.46875,1.01563 -0.92188,1 -1.09375,2.78125 l 6.71875,0 q 0,-1.84375 -0.82813,-2.8125 -0.8125,-0.98438 -2.32812,-0.98438 z m 12.71484,10.07813 q 0.51562,0 0.98437,-0.0781 0.48438,-0.0781 0.76563,-0.15625 l 0,1.48438 q -0.3125,0.15625 -0.9375,0.25 -0.60938,0.10937 -1.09375,0.10937 -3.73438,0 -3.73438,-3.92187 l 0,-7.64063 -1.84375,0 0,-0.9375 1.84375,-0.8125 0.82813,-2.75 1.125,0 0,2.98438 3.71875,0 0,1.51562 -3.71875,0 0,7.54688 q 0,1.17187 0.54687,1.79687 0.54688,0.60938 1.51563,0.60938 z" />
      <path
         style="fill:#000000;fill-rule:nonzero"
         id="path77"
         d="m 579.89526,561.7224 -1.89063,0 0,-12.21875 q 0,-1.51563 0.0937,-2.875 -0.25,0.25 -0.5625,0.51562 -0.29687,0.26563 -2.78125,2.28125 l -1.03125,-1.32812 4.53125,-3.51563 1.64063,0 0,17.14063 z m 17.87891,-8.59375 q 0,4.4375 -1.40625,6.64062 -1.39063,2.1875 -4.28125,2.1875 -2.76563,0 -4.20313,-2.23437 -1.4375,-2.25 -1.4375,-6.59375 0,-4.46875 1.39063,-6.64063 1.39062,-2.17187 4.25,-2.17187 2.79687,0 4.23437,2.26562 1.45313,2.26563 1.45313,6.54688 z m -9.35938,0 q 0,3.73437 0.875,5.45312 0.875,1.70313 2.79688,1.70313 1.95312,0 2.8125,-1.73438 0.875,-1.73437 0.875,-5.42187 0,-3.6875 -0.875,-5.40625 -0.85938,-1.71875 -2.8125,-1.71875 -1.92188,0 -2.79688,1.70312 -0.875,1.6875 -0.875,5.42188 z m 15.70703,2.01562 -4.46875,-6.26562 2.21875,0 3.39063,4.92187 3.375,-4.92187 2.1875,0 -4.46875,6.26562 4.70312,6.57813 -2.20312,0 -3.59375,-5.20313 -3.64063,5.20313 -2.20312,0 4.70312,-6.57813 z m 8.79297,-0.75 q 0,-5.04687 1.95313,-7.54687 1.96875,-2.5 5.8125,-2.5 1.32812,0 2.09375,0.21875 l 0,1.67187 q -0.90625,-0.29687 -2.0625,-0.29687 -2.76563,0 -4.21875,1.71875 -1.45313,1.71875 -1.59375,5.40625 l 0.14062,0 q 1.29688,-2.01563 4.07813,-2.01563 2.3125,0 3.64062,1.39063 1.32813,1.39062 1.32813,3.78125 0,2.67187 -1.45313,4.20312 -1.45312,1.53125 -3.9375,1.53125 -2.67187,0 -4.23437,-2 -1.54688,-2 -1.54688,-5.5625 z m 5.75,5.90625 q 1.67188,0 2.57813,-1.04687 0.92187,-1.04688 0.92187,-3.03125 0,-1.70313 -0.85937,-2.67188 -0.84375,-0.96875 -2.54688,-0.96875 -1.04687,0 -1.9375,0.4375 -0.875,0.42188 -1.40625,1.1875 -0.51562,0.76563 -0.51562,1.57813 0,1.21875 0.46875,2.26562 0.46875,1.03125 1.32812,1.64063 0.875,0.60937 1.96875,0.60937 z m 19.84766,-2.51562 -2.54688,0 0,3.9375 -1.85937,0 0,-3.9375 -8.34375,0 0,-1.70313 8.14062,-11.59375 2.0625,0 0,11.53125 2.54688,0 0,1.76563 z m -4.40625,-1.76563 0,-5.70312 q 0,-1.67188 0.10937,-3.78125 l -0.0937,0 q -0.5625,1.125 -1.04687,1.85937 l -5.35938,7.625 6.39063,0 z m 10.03515,-0.875 -4.46875,-6.26562 2.21875,0 3.39063,4.92187 3.375,-4.92187 2.1875,0 -4.46875,6.26562 4.70312,6.57813 -2.20312,0 -3.59375,-5.20313 -3.64063,5.20313 -2.20312,0 4.70312,-6.57813 z m 8.79297,-0.75 q 0,-5.04687 1.95313,-7.54687 1.96875,-2.5 5.8125,-2.5 1.32812,0 2.09375,0.21875 l 0,1.67187 q -0.90625,-0.29687 -2.0625,-0.29687 -2.76563,0 -4.21875,1.71875 -1.45313,1.71875 -1.59375,5.40625 l 0.14062,0 q 1.29688,-2.01563 4.07813,-2.01563 2.3125,0 3.64062,1.39063 1.32813,1.39062 1.32813,3.78125 0,2.67187 -1.45313,4.20312 -1.45312,1.53125 -3.9375,1.53125 -2.67187,0 -4.23437,-2 -1.54688,-2 -1.54688,-5.5625 z m 5.75,5.90625 q 1.67188,0 2.57813,-1.04687 0.92187,-1.04688 0.92187,-3.03125 0,-1.70313 -0.85937,-2.67188 -0.84375,-0.96875 -2.54688,-0.96875 -1.04687,0 -1.9375,0.4375 -0.875,0.42188 -1.40625,1.1875 -0.51562,0.76563 -0.51562,1.57813 0,1.21875 0.46875,2.26562 0.46875,1.03125 1.32812,1.64063 0.875,0.60937 1.96875,0.60937 z m 19.84766,-2.51562 -2.54688,0 0,3.9375 -1.85937,0 0,-3.9375 -8.34375,0 0,-1.70313 8.14062,-11.59375 2.0625,0 0,11.53125 2.54688,0 0,1.76563 z m -4.40625,-1.76563 0,-5.70312 q 0,-1.67188 0.10937,-3.78125 l -0.0937,0 q -0.5625,1.125 -1.04687,1.85937 l -5.35938,7.625 6.39063,0 z" />
      <path
         style="fill:#000000;fill-opacity:0;fill-rule:evenodd"
         id="path79"
         d="m 416.4265,575.7874 127.1496,0 0,72.15747 -127.1496,0 z" />
      <path
         style="fill:#000000;fill-rule:nonzero"
         id="path81"
         d="m 458.931,603.53864 7.76562,0 0,11.10937 q -1.8125,0.57813 -3.6875,0.875 -1.875,0.29688 -4.34375,0.29688 -5.1875,0 -8.07812,-3.07813 -2.89063,-3.09375 -2.89063,-8.65625 0,-3.5625 1.42188,-6.23437 1.4375,-2.6875 4.125,-4.09375 2.6875,-1.42188 6.29687,-1.42188 3.65625,0 6.8125,1.34375 l -1.03125,2.34375 q -3.09375,-1.3125 -5.95312,-1.3125 -4.17188,0 -6.51563,2.48438 -2.34375,2.48437 -2.34375,6.89062 0,4.625 2.25,7.01563 2.26563,2.39062 6.64063,2.39062 2.375,0 4.64062,-0.54687 l 0,-7.03125 -5.10937,0 0,-2.375 z m 27.64062,3.39062 q 0,4.1875 -2.10937,6.54688 -2.10938,2.34375 -5.82813,2.34375 -2.29687,0 -4.07812,-1.07813 -1.78125,-1.07812 -2.75,-3.09375 -0.96875,-2.01562 -0.96875,-4.71875 0,-4.1875 2.09375,-6.51562 2.09375,-2.34375 5.8125,-2.34375 3.59375,0 5.70312,2.39062 2.125,2.39063 2.125,6.46875 z m -13.04687,0 q 0,3.28125 1.3125,5 1.3125,1.71875 3.85937,1.71875 2.54688,0 3.85938,-1.70312 1.32812,-1.71875 1.32812,-5.01563 0,-3.26562 -1.32812,-4.95312 -1.3125,-1.70313 -3.89063,-1.70313 -2.54687,0 -3.84375,1.67188 -1.29687,1.67187 -1.29687,4.98437 z m 28.125,8.57813 -0.51563,-2.4375 -0.125,0 q -1.28125,1.60937 -2.5625,2.1875 -1.26562,0.5625 -3.17187,0.5625 -2.54688,0 -4,-1.3125 -1.4375,-1.3125 -1.4375,-3.73438 0,-5.1875 8.29687,-5.4375 l 2.90625,-0.0937 0,-1.0625 q 0,-2.01562 -0.875,-2.96875 -0.85937,-0.96875 -2.76562,-0.96875 -2.14063,0 -4.84375,1.3125 l -0.79688,-1.98437 q 1.26563,-0.6875 2.76563,-1.07813 1.51562,-0.39062 3.03125,-0.39062 3.0625,0 4.53125,1.35937 1.48437,1.35938 1.48437,4.35938 l 0,11.6875 -1.92187,0 z m -5.85938,-1.82813 q 2.42188,0 3.79688,-1.32812 1.39062,-1.32813 1.39062,-3.71875 l 0,-1.54688 -2.59375,0.10938 q -3.09375,0.10937 -4.46875,0.96875 -1.35937,0.84375 -1.35937,2.64062 0,1.40625 0.84375,2.14063 0.85937,0.73437 2.39062,0.73437 z m 15.71875,1.82813 -2.59375,0 0,-24.3125 2.59375,0 0,24.3125 z" />
      <a
         id="a111"
         rel="noreferrer"
         target="_blank"
         xlink:href="#slide=id.g1da1d09c70_1_134">
        <path
           style="fill-opacity:0;fill-rule:evenodd"
           id="path113"
           d="M 365.46194,680.6063 479.99737,483.85038 594.53283,680.6063 Z"
           fill="transparent" />
      </a>
    </g>
  </g>
  <g
     transform="translate(-5.01189,-134.48819)"
     style="display:inline"
     id="layer2">
    <path
       onclick="com.smbcgc.onSMBCMapClick(event,&quot;right&quot;,false)"
       d="m 371.84717,694.8796 0,0 c 0,-139.9585 113.4588,-253.41733 253.4173,-253.41733 l 0,0 c 67.21051,0 131.66815,26.69925 179.19312,74.22421 47.52496,47.52496 74.22424,111.98267 74.22424,179.19312 l 0,0 c 0,139.95856 -113.4588,253.41736 -253.41736,253.41736 l 0,0 c -139.9585,0 -253.4173,-113.4588 -253.4173,-253.41736 z"
       id="path4281"
       style="color:#000000;clip-rule:nonzero;display:inline;overflow:visible;visibility:visible;opacity:1;isolation:auto;mix-blend-mode:normal;color-interpolation:sRGB;color-interpolation-filters:linearRGB;solid-color:#000000;solid-opacity:1;fill:#000000;fill-opacity:0;fill-rule:evenodd;stroke:#00ff00;stroke-width:1;stroke-linecap:butt;stroke-linejoin:round;stroke-miterlimit:10;stroke-dasharray:none;stroke-dashoffset:0;stroke-opacity:0.02808987;color-rendering:auto;image-rendering:auto;shape-rendering:auto;text-rendering:auto;enable-background:accumulate" />
    <path
       onclick="com.smbcgc.onSMBCMapClick(event,&quot;left&quot;,false)"
       style="display:inline;fill:#000000;fill-opacity:0;fill-rule:evenodd;stroke:#00ff00;stroke-width:1;stroke-linecap:butt;stroke-linejoin:round;stroke-opacity:0.02808987"
       d="m 81.32974,694.8796 0,0 c 0,-139.9585 113.4588,-253.41733 253.41733,-253.41733 l 0,0 c 67.21045,0 131.66812,26.69925 179.19312,74.22421 47.52496,47.52496 74.22418,111.98267 74.22418,179.19312 l 0,0 c 0,139.95856 -113.45877,253.41736 -253.4173,253.41736 l 0,0 c -139.95853,0 -253.41733,-113.4588 -253.41733,-253.41736 z"
       id="path4283" />
    <path
       onclick="com.smbcgc.onSMBCMapClick(event,&quot;top&quot;,false)"
       style="display:inline;fill:#000000;fill-opacity:0;fill-rule:evenodd;stroke:#00ff00;stroke-width:1;stroke-linecap:butt;stroke-linejoin:round;stroke-opacity:0.02808987"
       d="m 226.58641,441.12897 0,0 c 0,-139.95853 113.45882,-253.41731 253.41734,-253.41731 l 0,0 c 67.21042,0 131.66812,26.69925 179.19308,74.22423 47.52496,47.52496 74.22424,111.98263 74.22424,179.19308 l 0,0 c 0,139.95856 -113.4588,253.41736 -253.41733,253.41736 l 0,0 c -139.95853,0 -253.41734,-113.4588 -253.41734,-253.41736 z"
       id="path4285" />
    <path
       onclick="com.smbcgc.onSMBCMapClick(event,&quot;leftright&quot;,false)"
       id="path4358"
       d="m 479.99609,487.22461 c -65.38889,45.82886 -108.14843,121.74247 -108.14843,207.6543 0,85.91634 42.76354,161.83595 108.1582,207.66406 65.39465,-45.82811 108.1582,-121.74772 108.1582,-207.66406 0,-67.21045 -26.69965,-131.6684 -74.22461,-179.19336 -10.53313,-10.53313 -21.90108,-20.03774 -33.94336,-28.46094 z"
       style="color:#000000;clip-rule:nonzero;display:inline;overflow:visible;visibility:visible;opacity:1;isolation:auto;mix-blend-mode:normal;color-interpolation:sRGB;color-interpolation-filters:linearRGB;solid-color:#000000;solid-opacity:1;fill:#a7c040;fill-opacity:0;fill-rule:evenodd;stroke:#00ff00;stroke-width:1;stroke-linecap:butt;stroke-linejoin:round;stroke-miterlimit:10;stroke-dasharray:none;stroke-dashoffset:0;stroke-opacity:0.02808987;color-rendering:auto;image-rendering:auto;shape-rendering:auto;text-rendering:auto;enable-background:accumulate" />
    <path
       onclick="com.smbcgc.onSMBCMapClick(event,&quot;topleft&quot;,false)"
       id="path4360"
       d="m 334.74609,441.46289 c -38.24802,0 -74.50637,8.48814 -107.02148,23.66016 12.08996,128.70283 120.41471,229.42383 252.2793,229.42383 38.24337,0 74.49965,-8.48772 107.01171,-23.65626 -5.55217,-58.40721 -31.23941,-113.36832 -73.07617,-155.20507 -47.525,-47.52496 -111.98291,-74.22266 -179.19336,-74.22266 z"
       style="display:inline;fill:#a7c040;fill-opacity:0;fill-rule:evenodd;stroke:#00ff00;stroke-width:1;stroke-linecap:butt;stroke-linejoin:round;stroke-opacity:0.02808987" />
    <path
       onclick="com.smbcgc.onSMBCMapClick(event,&quot;topright&quot;,false)"
       id="path4364"
       d="m 625.26367,441.46289 c -131.8652,0 -240.18826,100.72014 -252.27734,229.42383 32.51368,15.17038 68.77173,23.66016 107.01758,23.66016 131.84524,0 240.15701,-100.69145 252.27343,-229.36719 -33.20357,-15.46837 -69.68139,-23.7168 -107.01367,-23.7168 z"
       style="color:#000000;clip-rule:nonzero;display:inline;overflow:visible;visibility:visible;opacity:1;isolation:auto;mix-blend-mode:normal;color-interpolation:sRGB;color-interpolation-filters:linearRGB;solid-color:#000000;solid-opacity:1;fill:#a7c040;fill-opacity:0;fill-rule:evenodd;stroke:#00ff00;stroke-width:1;stroke-linecap:butt;stroke-linejoin:round;stroke-miterlimit:10;stroke-dasharray:none;stroke-dashoffset:0;stroke-opacity:0.02808987;color-rendering:auto;image-rendering:auto;shape-rendering:auto;text-rendering:auto;enable-background:accumulate" />
    <path
       onclick="com.smbcgc.onSMBCMapClick(event,&quot;center&quot;,false)"
       id="path4373"
       d="m 479.99609,487.22461 c -59.22895,41.51156 -99.87555,107.7093 -107.00976,183.66211 32.51368,15.17038 68.77173,23.66016 107.01758,23.66016 38.24337,0 74.49965,-8.48772 107.01171,-23.65626 -5.55217,-58.40721 -31.23941,-113.36832 -73.07617,-155.20507 -10.53313,-10.53313 -21.90108,-20.03774 -33.94336,-28.46094 z"
       style="color:#000000;clip-rule:nonzero;display:inline;overflow:visible;visibility:visible;opacity:1;isolation:auto;mix-blend-mode:normal;color-interpolation:sRGB;color-interpolation-filters:linearRGB;solid-color:#000000;solid-opacity:1;fill:#a7c040;fill-opacity:0;fill-rule:evenodd;stroke:#00ff00;stroke-width:1;stroke-linecap:butt;stroke-linejoin:round;stroke-miterlimit:10;stroke-dasharray:none;stroke-dashoffset:0;stroke-opacity:0.02808987;color-rendering:auto;image-rendering:auto;shape-rendering:auto;text-rendering:auto;enable-background:accumulate" />
  </g>
</svg>
